# xmcd CD database file
#
# Track frame offsets:
#	150
#	16351
#	32551
#	51380
#	70209
#	83454
#	96759
#	113934
#	131110
#	144943
#	158779
#	174386
#	189895
#	205596
#	221263
#	234211
#	247102
#	265248
#	283394
#	297140
#	311082
#
# Disc length: 4166 seconds
#
# Revision: 1
# Processed by: cddbd v1.5.2PL0 Copyright (c) Steve Scherf et al.
# Submitted via: CDex 1.70beta2
#
DISCID=29104415
DTITLE=Hal LEONARD - Big Jazz Standards Collection
DYEAR=1900
DGENRE=Jazz
TTITLE0=I'll Take Romance (Split)
TTITLE1=I'll Take Romance (Stereo)
TTITLE2=In the Wee Small Hours of the Morning (Split)
TTITLE3=In the Wee Small Hours of the Morning  (Stereo)
TTITLE4=Just in Time (Split)
TTITLE5=Just in Time (Stereo)
TTITLE6=Like Someone in Love (Split)
TTITLE7=Like Someone in Love (Stereo)
TTITLE8=Lollipops and Roses (Split)
TTITLE9=Lollipops and Roses (Stereo)
TTITLE10=Love is Just arround the Corner (Split)
TTITLE11=Love is Just arround the Corner(Stereo) 
TTITLE12=My Ideal (Split)
TTITLE13=My Ideal (Stereo)
TTITLE14=On a Slow Boat To China (Split)
TTITLE15=On a Slow Boat To China (Stereo) 
TTITLE16=Too Late Now (Split)
TTITLE17=Too Late Now (Stereo)
TTITLE18=You are Too Beautiful (Split)
TTITLE19=You are Too Beautiful (Stereo) 
TTITLE20=Bb Tuning Notes
EXTD=
EXTT0=
EXTT1=
EXTT2=
EXTT3=
EXTT4=
EXTT5=
EXTT6=
EXTT7=
EXTT8=
EXTT9=
EXTT10=
EXTT11=
EXTT12=
EXTT13=
EXTT14=
EXTT15=
EXTT16=
EXTT17=
EXTT18=
EXTT19=
EXTT20=
PLAYORDER=
